<svg xmlns="http://www.w3.org/2000/svg" version="1.1" xmlns:xlink="http://www.w3.org/1999/xlink" width="1000" height="1000"><svg xmlns="http://www.w3.org/2000/svg" version="1.1" xmlns:xlink="http://www.w3.org/1999/xlink" width="1000" height="1000"><svg version="1.1" id="Vrstva_1" x="0px" y="0px" viewBox="0 0 1000 999.99997" xml:space="preserve" sodipodi:docname="Logo_hlava.svg" width="1000" height="1000" inkscape:version="1.4.3 (0d15f75042, 2025-12-25)" xmlns:inkscape="http://www.inkscape.org/namespaces/inkscape" xmlns:sodipodi="http://sodipodi.sourceforge.net/DTD/sodipodi-0.dtd" xmlns="http://www.w3.org/2000/svg" xmlns:svg="http://www.w3.org/2000/svg"><defs id="defs7"></defs><sodipodi:namedview id="namedview7" pagecolor="#ffffff" bordercolor="#000000" borderopacity="0.25" inkscape:showpageshadow="2" inkscape:pageopacity="0.0" inkscape:pagecheckerboard="0" inkscape:deskcolor="#d1d1d1" inkscape:zoom="0.56847213" inkscape:cx="601.61261" inkscape:cy="576.98519" inkscape:window-width="2048" inkscape:window-height="1211" inkscape:window-x="0" inkscape:window-y="0" inkscape:window-maximized="1" inkscape:current-layer="g7"></sodipodi:namedview>
<style type="text/css" id="style1">
	.st0{fill:#64A605;}
	.st1{fill:#F70101;}
	.st2{fill:#004D7B;}
	.st3{fill:#FAB616;}
</style>
<g id="g7">
	
	
	
	<g id="g8" transform="matrix(2.0042692,0,0,2.0042692,-720.19184,-331.07024)"><circle class="st1" cx="608.79999" cy="316.20001" r="84.099998" id="circle2"></circle><g id="g6">
		<path class="st2" d="m 829.9,415.7 c -1.7,-1.5 -3.4,-3 -5.2,-4.5 0.2,10.8 -3.5,21.7 -11.3,30.4 -0.6,0.7 -1.2,1.4 -1.9,2 -8,7.9 -17.1,16.2 -27,24.6 -7.4,6.3 -15.3,12.5 -23.7,18.6 -24.4,17.9 -52.6,34.3 -83.2,44.9 -1.6,0.5 -3.2,1.1 -4.7,1.6 -5.4,1.7 -10.9,3.3 -16.4,4.7 -15.4,3.8 -31.3,5.9 -47.6,5.9 -15.4,0 -30.4,-1.9 -45,-5.3 -7,-1.6 -14,-3.6 -20.8,-5.9 -1.8,-0.6 -3.5,-1.2 -5.2,-1.8 -29.1,-10.4 -55.9,-26 -79.3,-42.9 -10.4,-7.5 -20.1,-15.3 -29.1,-23 -8.5,-7.3 -16.3,-14.5 -23.3,-21.4 -1.5,-1.5 -2.8,-3 -4,-4.6 -6.3,-8.2 -9.4,-18.1 -9.3,-27.9 -1.9,1.6 -3.7,3.2 -5.5,4.8 -19.1,17.3 -21.1,46.2 -5.7,66 1.4,1.8 2.8,3.5 4.4,5.1 7.7,7.6 16.3,15.5 25.6,23.5 9.8,8.5 20.5,17 31.9,25.3 25.7,18.6 55.2,35.8 87.2,47.2 1.9,0.7 3.8,1.3 5.7,2 7.5,2.5 15.1,4.7 22.8,6.4 16,3.7 32.5,5.8 49.4,5.8 17.9,0 35.4,-2.4 52.3,-6.5 6.1,-1.5 12.1,-3.2 18,-5.1 1.7,-0.6 3.5,-1.1 5.2,-1.7 33.7,-11.7 64.6,-29.8 91.5,-49.4 9.2,-6.7 17.9,-13.6 26.1,-20.5 10.9,-9.2 20.9,-18.4 29.7,-27 0.7,-0.7 1.4,-1.5 2.1,-2.3 18,-19.9 16.5,-50.8 -3.7,-69 z" id="path3"></path>
		<path class="st0" d="m 402.1,439 c 1.2,1.6 2.6,3.2 4,4.6 7,6.9 14.8,14.1 23.3,21.4 9,7.7 18.7,15.5 29.1,23 23.4,17 50.2,32.5 79.3,42.9 1.7,0.6 3.5,1.2 5.2,1.8 6.8,2.3 13.7,4.2 20.8,5.9 14.6,3.4 29.6,5.3 45,5.3 16.3,0 32.2,-2.2 47.6,-5.9 5.5,-1.4 11,-2.9 16.4,-4.7 1.6,-0.5 3.2,-1 4.7,-1.6 30.7,-10.6 58.8,-27.1 83.2,-44.9 8.4,-6.1 16.3,-12.4 23.7,-18.6 9.9,-8.4 19,-16.7 27,-24.6 0.7,-0.7 1.3,-1.4 1.9,-2 7.8,-8.6 11.5,-19.5 11.3,-30.4 -8.2,-6.9 -17.4,-13.7 -27.6,-20.4 -1.6,3.1 -3.5,6 -5.9,8.7 -0.6,0.6 -1.1,1.2 -1.7,1.8 -7.2,7 -15.3,14.4 -24.1,21.9 -6.6,5.6 -13.7,11.2 -21.1,16.6 -21.8,15.9 -46.9,30.6 -74.2,40.1 -1.4,0.5 -2.8,0.9 -4.2,1.4 -4.8,1.6 -9.7,3 -14.6,4.2 -13.7,3.3 -27.9,5.3 -42.4,5.3 -13.7,0 -27.1,-1.7 -40.1,-4.7 -6.3,-1.4 -12.4,-3.2 -18.5,-5.2 -1.6,-0.5 -3.1,-1.1 -4.7,-1.6 -25.9,-9.3 -49.8,-23.2 -70.7,-38.3 -9.3,-6.7 -17.9,-13.6 -25.9,-20.5 -7.6,-6.5 -14.5,-13 -20.8,-19.1 -1.3,-1.3 -2.5,-2.7 -3.6,-4.1 -1.7,-2.2 -3.2,-4.6 -4.4,-7.1 -10.1,7.1 -19.3,14.2 -27.3,21 -0.1,9.8 3,19.6 9.3,27.8 z" id="path4"></path>
		<path class="st3" d="m 755.4,366.5 c -5.4,5.2 -11.4,10.7 -18,16.2 -5.4,4.6 -11.2,9.2 -17.4,13.7 -17.9,13.1 -38.5,25.1 -60.9,32.9 -1.2,0.4 -2.3,0.8 -3.5,1.1 -4,1.3 -8,2.4 -12,3.4 -11.3,2.7 -22.9,4.3 -34.8,4.3 -11.2,0 -22.2,-1.4 -32.9,-3.9 -5.1,-1.2 -10.2,-2.6 -15.2,-4.3 -1.3,-0.4 -2.6,-0.9 -3.8,-1.3 -21.3,-7.6 -40.9,-19 -58.1,-31.4 -7.6,-5.5 -14.7,-11.2 -21.3,-16.8 -6.2,-5.3 -11.9,-10.6 -17.1,-15.7 0,0 0,0 -0.1,-0.1 -1.4,0.7 -2.7,1.4 -4,2.1 -12.8,7.5 -25,15.4 -36.2,23.3 1.2,2.5 2.6,4.9 4.4,7.1 1.1,1.4 2.3,2.8 3.6,4.1 6.3,6.1 13.2,12.6 20.8,19.1 8,6.9 16.7,13.8 25.9,20.5 20.9,15.1 44.8,29 70.7,38.3 1.5,0.6 3.1,1.1 4.7,1.6 6.1,2 12.2,3.8 18.5,5.2 13,3 26.4,4.7 40.1,4.7 14.5,0 28.7,-1.9 42.4,-5.3 4.9,-1.2 9.8,-2.6 14.6,-4.2 1.4,-0.5 2.8,-0.9 4.2,-1.4 27.3,-9.5 52.4,-24.2 74.2,-40.1 7.5,-5.5 14.5,-11 21.1,-16.6 8.9,-7.5 16.9,-14.9 24.1,-21.9 0.6,-0.6 1.1,-1.2 1.7,-1.8 2.4,-2.7 4.4,-5.6 5.9,-8.7 -11.8,-7.8 -24.8,-15.4 -38.4,-22.7 -1,-0.4 -2.1,-0.9 -3.2,-1.4 z" id="path5"></path>
		<path class="st1" d="m 477.5,380.4 c 6.6,5.6 13.7,11.3 21.3,16.8 17.1,12.4 36.8,23.8 58.1,31.4 1.3,0.5 2.5,0.9 3.8,1.3 5,1.7 10.1,3.1 15.2,4.3 10.7,2.5 21.7,3.9 32.9,3.9 11.9,0 23.6,-1.6 34.8,-4.3 4.1,-1 8.1,-2.1 12,-3.4 1.2,-0.4 2.3,-0.7 3.5,-1.1 22.4,-7.8 43.1,-19.8 60.9,-32.9 6.1,-4.5 11.9,-9.1 17.4,-13.7 6.5,-5.5 12.5,-11 18,-16.2 -23.9,-10.9 -52.6,-4.6 -68.8,16.4 -0.3,0.4 -0.7,0.8 -1,1.2 -7.7,9.6 -17.9,17.5 -29.5,23.3 -14.4,7.2 -30.9,11.2 -47.2,11.2 -7.1,0 -27,-2.9 -46.5,-12.6 -11,-5.5 -21.8,-13.1 -30.1,-23.6 -0.3,-0.4 -0.7,-0.8 -1,-1.3 -16.6,-21.9 -46.4,-28.3 -70.7,-16.4 0,0 0,0 0.1,0.1 4.9,5 10.6,10.3 16.8,15.6 z" id="path6"></path>
	</g></g>
</g>
</svg></svg><style>@media (prefers-color-scheme: light) { :root { filter: none; } }
@media (prefers-color-scheme: dark) { :root { filter: none; } }
</style></svg>